<svg width="23" height="23" viewBox="0 0 23 23" fill="none" xmlns="http://www.w3.org/2000/svg">
<path fill-rule="evenodd" clip-rule="evenodd" d="M8.89123 19.2664C8.73168 19.2664 8.60234 19.3957 8.60234 19.5553C8.60234 19.7148 8.73168 19.8442 8.89123 19.8442C9.05078 19.8442 9.18012 19.7148 9.18012 19.5553C9.18012 19.3957 9.05078 19.2664 8.89123 19.2664ZM7.40234 19.5553C7.40234 18.733 8.06894 18.0664 8.89123 18.0664C9.71352 18.0664 10.3801 18.733 10.3801 19.5553C10.3801 20.3776 9.71352 21.0442 8.89123 21.0442C8.06894 21.0442 7.40234 20.3776 7.40234 19.5553Z" fill="#202027"/>
<path fill-rule="evenodd" clip-rule="evenodd" d="M18.6686 19.2664C18.509 19.2664 18.3797 19.3957 18.3797 19.5553C18.3797 19.7148 18.509 19.8442 18.6686 19.8442C18.8281 19.8442 18.9575 19.7148 18.9575 19.5553C18.9575 19.3957 18.8281 19.2664 18.6686 19.2664ZM17.1797 19.5553C17.1797 18.733 17.8463 18.0664 18.6686 18.0664C19.4909 18.0664 20.1575 18.733 20.1575 19.5553C20.1575 20.3776 19.4909 21.0442 18.6686 21.0442C17.8463 21.0442 17.1797 20.3776 17.1797 19.5553Z" fill="#202027"/>
<path fill-rule="evenodd" clip-rule="evenodd" d="M1.17969 1.77773C1.17969 1.44636 1.44832 1.17773 1.77969 1.17773H5.33524C5.62122 1.17773 5.86745 1.37957 5.92357 1.65998L6.71661 5.62218H21.3352C21.5141 5.62218 21.6836 5.70194 21.7975 5.83971C21.9115 5.97749 21.9581 6.15893 21.9246 6.33458L20.5024 13.7924L20.5015 13.7968C20.3928 14.3442 20.095 14.8359 19.6603 15.1858C19.2272 15.5345 18.6857 15.7203 18.1299 15.7111H9.5006C8.9448 15.7203 8.40326 15.5345 7.97015 15.1858C7.53551 14.8359 7.23776 14.3443 7.129 13.7971C7.12899 13.797 7.12902 13.7971 7.129 13.7971L5.6425 6.37008C5.63758 6.35066 5.6336 6.33087 5.63063 6.31076L4.84343 2.37773H1.77969C1.44832 2.37773 1.17969 2.10911 1.17969 1.77773ZM6.95679 6.82218L8.3058 13.5622C8.35965 13.8333 8.50731 14.0777 8.72263 14.2511C8.93795 14.4244 9.20738 14.5165 9.48375 14.5112L9.49524 14.511L18.1467 14.5111C18.4231 14.5164 18.6925 14.4244 18.9079 14.2511C19.1227 14.0781 19.27 13.8353 19.3241 13.565C19.3243 13.5643 19.3244 13.5637 19.3245 13.5631L20.61 6.82218H6.95679Z" fill="#202027"/>
</svg>
