<svg width="22" height="22" viewBox="0 0 22 22" fill="none" xmlns="http://www.w3.org/2000/svg">
<path fill-rule="evenodd" clip-rule="evenodd" d="M2.75 13.25C3.02614 13.25 3.25 13.4739 3.25 13.75V17.4167C3.25 17.7703 3.39048 18.1094 3.64052 18.3595C3.89057 18.6095 4.22971 18.75 4.58333 18.75H17.4167C17.7703 18.75 18.1094 18.6095 18.3595 18.3595C18.6095 18.1094 18.75 17.7703 18.75 17.4167V13.75C18.75 13.4739 18.9739 13.25 19.25 13.25C19.5261 13.25 19.75 13.4739 19.75 13.75V17.4167C19.75 18.0355 19.5042 18.629 19.0666 19.0666C18.629 19.5042 18.0355 19.75 17.4167 19.75H4.58333C3.96449 19.75 3.371 19.5042 2.93342 19.0666C2.49583 18.629 2.25 18.0355 2.25 17.4167V13.75C2.25 13.4739 2.47386 13.25 2.75 13.25Z" fill="white"/>
<path fill-rule="evenodd" clip-rule="evenodd" d="M6.06442 8.81295C6.25968 8.61769 6.57626 8.61769 6.77152 8.81295L11.0013 13.0427L15.2311 8.81295C15.4263 8.61769 15.7429 8.61769 15.9382 8.81295C16.1335 9.00821 16.1335 9.3248 15.9382 9.52006L11.3549 14.1034C11.1596 14.2987 10.843 14.2987 10.6477 14.1034L6.06442 9.52006C5.86915 9.3248 5.86915 9.00821 6.06442 8.81295Z" fill="white"/>
<path fill-rule="evenodd" clip-rule="evenodd" d="M11 2.25C11.2761 2.25 11.5 2.47386 11.5 2.75V13.75C11.5 14.0261 11.2761 14.25 11 14.25C10.7239 14.25 10.5 14.0261 10.5 13.75V2.75C10.5 2.47386 10.7239 2.25 11 2.25Z" fill="white"/>
</svg>
