<svg width="20" height="20" viewBox="0 0 20 20" fill="none" xmlns="http://www.w3.org/2000/svg">
<path fill-rule="evenodd" clip-rule="evenodd" d="M9.69303 1.27232C9.87358 1.13188 10.1264 1.13188 10.307 1.27232L17.807 7.10565C17.9288 7.20038 18 7.34603 18 7.50032V16.667C18 17.2416 17.7717 17.7927 17.3654 18.1991C16.9591 18.6054 16.408 18.8337 15.8333 18.8337H4.16667C3.59203 18.8337 3.04093 18.6054 2.6346 18.1991C2.22827 17.7927 2 17.2416 2 16.667V7.50032C2 7.34603 2.07124 7.20038 2.19303 7.10565L9.69303 1.27232ZM3 7.74487V16.667C3 16.9764 3.12292 17.2732 3.34171 17.4919C3.5605 17.7107 3.85725 17.8337 4.16667 17.8337H15.8333C16.1428 17.8337 16.4395 17.7107 16.6583 17.4919C16.8771 17.2732 17 16.9764 17 16.667V7.74487L10 2.30042L3 7.74487Z" fill="#202027"/>
<path fill-rule="evenodd" clip-rule="evenodd" d="M7 10C7 9.72386 7.22386 9.5 7.5 9.5H12.5C12.7761 9.5 13 9.72386 13 10V18.3333C13 18.6095 12.7761 18.8333 12.5 18.8333C12.2239 18.8333 12 18.6095 12 18.3333V10.5H8V18.3333C8 18.6095 7.77614 18.8333 7.5 18.8333C7.22386 18.8333 7 18.6095 7 18.3333V10Z" fill="#202027"/>
</svg>
