<svg width="20" height="20" viewBox="0 0 20 20" fill="none" xmlns="http://www.w3.org/2000/svg">
<path fill-rule="evenodd" clip-rule="evenodd" d="M9.1651 3.0999C5.81458 3.0999 3.09844 5.81604 3.09844 9.16657C3.09844 12.5171 5.81458 15.2332 9.1651 15.2332C12.5156 15.2332 15.2318 12.5171 15.2318 9.16657C15.2318 5.81604 12.5156 3.0999 9.1651 3.0999ZM1.89844 9.16657C1.89844 5.1533 5.15183 1.8999 9.1651 1.8999C13.1784 1.8999 16.4318 5.1533 16.4318 9.16657C16.4318 13.1798 13.1784 16.4332 9.1651 16.4332C5.15183 16.4332 1.89844 13.1798 1.89844 9.16657Z" fill="#202027"/>
<path fill-rule="evenodd" clip-rule="evenodd" d="M13.4492 13.4506C13.6835 13.2163 14.0634 13.2163 14.2977 13.4506L17.9227 17.0756C18.157 17.31 18.157 17.6899 17.9227 17.9242C17.6884 18.1585 17.3085 18.1585 17.0742 17.9242L13.4492 14.2992C13.2149 14.0649 13.2149 13.685 13.4492 13.4506Z" fill="#202027"/>
</svg>
