<svg width="202" height="50" viewBox="0 0 202 50" fill="none" xmlns="http://www.w3.org/2000/svg">
<path fill-rule="evenodd" clip-rule="evenodd" d="M34.0159 26.2238V23.9116L37.7414 25.0677L34.0159 26.2238ZM30.4167 32.5947L32.0531 30.96L33.8688 34.4096L30.4167 32.5947ZM24.9875 32.1833C24.9809 32.1838 24.9738 32.1838 24.9503 32.1844H24.947H24.9448C24.5681 32.192 24.181 32.1745 23.789 32.1303C23.4025 32.0855 23.0132 32.0139 22.6277 31.9112C20.6376 31.3834 18.8115 30.0684 17.8525 27.671C17.7038 27.3006 17.8847 26.8794 18.2554 26.7308C18.6261 26.5822 19.0477 26.7625 19.1958 27.1334C19.9607 29.044 21.414 30.0924 22.9968 30.512C23.3084 30.5951 23.6294 30.6535 23.9536 30.6912C24.2707 30.7267 24.5955 30.7409 24.9219 30.7344H24.9274C24.9328 30.7344 24.9383 30.7338 24.9536 30.7333C26.8765 30.6852 28.8284 29.8187 29.9486 28.1037C30.1673 27.7677 30.3554 27.4011 30.5047 27.005C30.6545 26.6051 30.7682 26.1669 30.8387 25.6905C30.8409 25.6785 30.8431 25.6659 30.8448 25.6528V25.6501C30.9814 24.6929 30.935 23.7204 30.7125 22.8151V22.8124C30.6742 22.654 30.6233 22.4813 30.5621 22.2961C30.5036 22.118 30.4413 21.9525 30.3762 21.7995L30.3735 21.794L30.3707 21.788C30.2532 21.5121 30.1116 21.2493 29.9497 21.0018C29.2056 19.8627 28.0476 19.0989 26.7622 18.7503C25.461 18.3979 24.0345 18.4695 22.7715 19.0071C22.4725 19.1339 22.18 19.2901 21.8973 19.4742C20.8536 20.1555 20.2341 21.1657 20.0362 22.2333C19.999 22.4311 19.9771 22.6425 19.97 22.8648C19.9624 23.0807 19.9706 23.2921 19.9941 23.4953C19.9946 23.4986 19.9957 23.5024 19.9957 23.5052C19.9957 23.5057 19.9963 23.5057 19.9963 23.5063C19.9963 23.5084 19.9963 23.5095 19.9968 23.5112V23.5123V23.515L19.9974 23.5177C19.9974 23.5194 19.9974 23.5199 19.9979 23.521V23.5232C19.9979 23.5237 19.9979 23.5243 19.9985 23.5254V23.527C20.2767 25.761 22.344 27.2558 24.4932 27.3044C26.0608 27.341 27.3035 26.2314 27.3412 24.6017C27.3571 23.9155 27.0159 23.2762 26.4577 22.878C25.9038 22.483 25.1898 22.3628 24.5506 22.5982C23.485 22.9927 24.093 23.6221 23.7048 24.2476C23.6064 24.4066 23.4309 24.5164 23.2095 24.5574C22.8169 24.6312 22.4386 24.3728 22.3648 23.9805L22.3642 23.9756V23.9728C22.1455 22.7895 22.9345 21.652 24.052 21.2389C24.4703 21.0843 24.8951 21.0182 25.3084 21.027H25.3117C26.7507 21.0614 28.0815 22.0164 28.5807 23.3653C28.8125 23.9925 28.8442 24.6607 28.7174 25.313C28.3084 27.4208 26.4435 28.7943 24.3237 28.7457H24.321C23.3423 28.7227 22.3555 28.4326 21.5064 27.9573C19.999 27.1138 18.7885 25.6255 18.5561 23.6778C18.5589 23.6986 18.5622 23.7281 18.5551 23.6707C18.5545 23.6691 18.5551 23.668 18.5551 23.6674V23.6658C18.5545 23.662 18.5545 23.6625 18.5551 23.6658V23.6647C18.5217 23.379 18.5091 23.0954 18.5184 22.8195C18.5272 22.5474 18.5589 22.2639 18.613 21.9732C18.8809 20.5309 19.7103 19.1716 21.1034 18.2619C21.4528 18.0341 21.8218 17.8385 22.204 17.6757C23.7726 17.0081 25.5348 16.9174 27.1362 17.3512C28.7535 17.7893 30.2155 18.7591 31.163 20.2091C31.3685 20.5227 31.5506 20.8625 31.7059 21.2269L31.7086 21.2324L31.7114 21.2389C31.7988 21.4454 31.8748 21.6465 31.9399 21.8421C32.0022 22.0317 32.0618 22.2415 32.1181 22.4698C32.3849 23.5549 32.4413 24.7159 32.2789 25.8539C32.2767 25.8681 32.2745 25.8812 32.2729 25.8943V25.9003C32.1881 26.4707 32.0476 27.0078 31.8595 27.5088C31.6703 28.0119 31.4347 28.4731 31.1619 28.891C29.7584 31.0392 27.3489 32.1243 24.9875 32.1833ZM24.52 38.2788L23.3631 34.5566H25.6775L24.52 38.2788ZM15.1718 34.4096L16.9875 30.9595L18.6239 32.5947L15.1718 34.4096ZM18.6239 17.5402L16.9875 19.1765L15.1718 15.7258L18.6239 17.5402ZM15.0247 26.2238L11.2992 25.0677L15.0247 23.9116V26.2238ZM24.52 11.856L25.6775 15.5794H23.3631L24.52 11.856ZM33.8688 15.7258L32.0531 19.1759L30.4167 17.5402L33.8688 15.7258ZM48.6752 23.2817L26.1236 0.746154C25.309 -0.0673506 23.9755 -0.0668042 23.1619 0.746154L0.610371 23.2817C-0.20373 24.0952 -0.203184 25.4288 0.610371 26.2412L23.1619 48.7763C23.9749 49.5892 25.3101 49.5903 26.1236 48.7763L48.6752 26.2412C49.4887 25.4277 49.4898 24.0952 48.6752 23.2817ZM77.3974 16.6009C75.8107 14.858 73.8069 13.6413 71.8441 13.0764C70.8135 12.7978 69.7506 12.6677 68.6867 12.6677C66.7812 12.6677 64.8758 13.0764 63.1913 13.9189C59.2909 15.8573 56.9513 19.8461 56.9513 23.9115C56.9513 30.1485 62.2591 35.1519 68.3766 35.1519C73.7747 35.1519 79.4586 31.1789 79.4586 24.3431V22.5352H68.7856V25.2833H76.3985C75.9655 30.1808 71.9988 32.3962 68.3766 32.3962C63.6003 32.3962 60.0093 28.5636 60.0093 23.9115C60.0093 20.3209 62.1285 17.6313 64.4423 16.3872C65.661 15.7256 67.0027 15.4148 68.3766 15.4148C69.3083 15.4148 70.2826 15.5699 71.1563 15.8884C72.4986 16.3872 74.2809 17.6078 75.4346 18.7272L77.3974 16.6009ZM89.207 22.1604C92.1671 22.1604 94.195 24.3103 94.195 27.3458C94.195 30.3692 92.1671 32.5273 89.207 32.5273C86.2716 32.5273 84.2093 30.4015 84.2093 27.3458C84.2093 24.2868 86.2716 22.1604 89.207 22.1604ZM89.207 19.5342C84.8637 19.5342 81.3952 23.0018 81.3952 27.3458C81.3952 31.6783 84.8637 35.1519 89.207 35.1519C93.5411 35.1519 97.0091 31.6783 97.0091 27.3458C97.0091 23.0018 93.5411 19.5342 89.207 19.5342ZM99.0698 34.834H101.818V12.9786H99.0698V34.834ZM117.242 12.9786V26.4039C117.242 27.5572 117.121 30.5894 114.528 31.9968C113.841 32.365 113.054 32.5273 112.277 32.5273C109.277 32.5273 107.125 30.3359 107.125 27.3119C107.125 25.1533 108.189 23.6241 109.408 22.88C110.25 22.3812 111.246 22.1604 112.213 22.1604C113.841 22.1604 115.28 22.9117 116.123 23.4689V20.5985C114.56 19.7882 113.088 19.5342 112.157 19.5342C110.871 19.5342 109.531 19.7576 108.376 20.3526C105.908 21.5961 104.312 24.1541 104.312 27.1884C104.312 31.0893 107.035 35.1519 112.213 35.1519C116.965 35.1519 119.99 31.5881 119.99 26.4039V12.9786H117.242ZM136.634 24.2868C135.17 21.0404 132.323 19.5342 129.387 19.5342C124.987 19.5342 121.619 22.9117 121.619 27.3458C121.619 30.5894 123.359 33.0835 125.895 34.3357C126.983 34.8755 128.168 35.1519 129.387 35.1519C130.794 35.1519 132.2 34.834 133.419 34.1467C134.572 33.4938 136.888 31.7755 137.198 28.1866L134.418 27.8424C134.352 29.618 133.419 31.1221 132.169 31.8668C131.326 32.365 130.328 32.5273 129.33 32.5273C128.391 32.5273 127.458 32.276 126.673 31.8089C125.421 31.0227 124.422 29.4946 124.422 27.3458C124.422 24.3764 126.393 22.1604 129.33 22.1604C130.384 22.1604 131.669 22.3812 132.79 23.5995L125.397 27.7211L126.517 29.9038L136.634 24.2868ZM149.309 34.834H152.06V26.8126C152.06 24.6878 151.715 22.0703 149.088 20.4438C148.058 19.8221 146.873 19.5342 145.653 19.5342C144.435 19.5342 143.25 19.8221 142.22 20.4438C139.602 22.0703 139.259 24.6878 139.259 26.8126V34.834H142.007V26.8126C142.007 25.5609 142.096 23.5995 144.003 22.5697C144.501 22.2834 145.097 22.1604 145.653 22.1604C146.219 22.1604 146.817 22.2834 147.314 22.5697C149.22 23.5995 149.309 25.5609 149.309 26.8126V34.834ZM160.646 15.7256H166.051V34.834H168.98V15.7256H174.385V12.9786H160.646V15.7256ZM175.979 34.834H178.729V19.8461H175.979V34.834ZM175.694 16.5118C175.694 17.198 176.134 18.1623 177.354 18.1623C178.573 18.1623 179.008 17.198 179.008 16.5118C179.008 15.8245 178.573 14.858 177.354 14.858C176.134 14.858 175.694 15.8245 175.694 16.5118ZM181.5 34.834H184.248V12.9786H181.5V34.834ZM201.334 24.2868C199.861 21.0404 197.023 19.5342 194.086 19.5342C189.687 19.5342 186.308 22.9117 186.308 27.3458C186.308 30.5894 188.058 33.0835 190.586 34.3357C191.683 34.8755 192.869 35.1519 194.086 35.1519C195.494 35.1519 196.9 34.834 198.12 34.1467C199.272 33.4938 201.579 31.7755 201.899 28.1866L199.117 27.8424C199.052 29.618 198.12 31.1221 196.869 31.8668C196.025 32.365 195.027 32.5273 194.021 32.5273C193.09 32.5273 192.149 32.276 191.371 31.8089C190.119 31.0227 189.122 29.4946 189.122 27.3458C189.122 24.3764 191.094 22.1604 194.021 22.1604C195.084 22.1604 196.369 22.3812 197.489 23.5995L190.088 27.7211L191.215 29.9038L201.334 24.2868Z" fill="white"/>
</svg>
